<svg width="1660" height="95" viewBox="0 0 1660 95" fill="none" xmlns="http://www.w3.org/2000/svg">
<path d="M1588.61 1.28887C1588.33 1.49649 77.783 0.130737 74.7041 0.0384619C71.5617 -0.0768817 65.9434 0.0845994 65.1499 0.292218C64.7055 0.43063 64.0072 0.522905 63.5628 0.522905C63.1502 0.522905 62.5471 0.61518 62.2297 0.730524C61.4044 1.05349 57.532 1.49179 54.9292 1.58407C53.6278 1.60713 52.1359 1.74555 51.5963 1.86089C51.025 1.97623 49.6601 2.04544 48.5174 2.02237C47.3747 1.9993 46.1685 2.06851 45.8194 2.16078C44.9941 2.3684 40.709 2.6683 37.884 2.71443C36.6778 2.7375 31.7262 2.82978 26.9015 2.92205C20.7754 3.06046 17.9186 3.0374 17.4743 2.85285C16.9981 2.6683 16.4268 2.69136 15.2841 2.92205C14.4588 3.1066 12.9035 3.42956 11.856 3.63718C10.8086 3.8448 9.31671 4.23697 8.52317 4.51379C7.76138 4.79062 6.96784 5.02131 6.80914 5.02131C6.26953 5.02131 6.23779 5.73644 6.71391 6.10554C7.09481 6.38236 7.12655 6.52077 6.74565 7.00522C6.52346 7.30511 6.42824 7.78955 6.52346 8.06638C6.61869 8.3432 6.45998 8.89685 6.20605 9.26595C5.92038 9.68119 5.85689 11.8313 6.0156 11.9236C6.17431 11.9928 6.30127 12.3849 6.30127 12.7771C6.30127 13.1923 6.42824 13.8613 6.58695 14.2535C6.84088 14.8533 6.77739 15.107 6.26953 15.5684C5.85689 15.9606 5.79341 16.1682 6.04734 16.2143C6.30127 16.2835 6.20605 16.6296 5.72993 17.3447C5.34903 17.9214 4.96813 18.7058 4.90465 19.0979C4.87291 19.4901 4.58723 20.0437 4.26982 20.3436C3.98415 20.6435 3.76196 21.3356 3.76196 21.8892C3.76196 22.4198 3.57151 23.1119 3.31758 23.3887C3.06365 23.6655 2.77797 24.3576 2.65101 24.9343C2.36533 26.6645 2.30185 26.8259 1.82573 27.1028C1.22264 27.4488 1.09568 28.9252 1.31787 33.0084C1.34961 33.4467 1.25438 34.0465 1.12742 34.3002C0.936968 34.6924 1.03219 34.8308 1.5718 34.9231C1.92095 34.9923 2.17488 35.1538 2.07966 35.246C1.82573 35.5229 2.4923 36.8839 3.22235 37.6221C3.85718 38.2911 3.92066 38.9601 3.38106 39.8598C3.19061 40.2058 2.96842 40.7595 2.93668 41.0824C2.8732 41.3823 2.17488 42.0974 1.38135 42.6511C-0.173982 43.7815 -0.205723 43.8507 0.333881 45.3271C0.651296 46.1806 0.619554 46.4805 0.270398 46.9649C-0.0787574 47.4494 -0.0787574 47.6109 0.206915 47.7493C0.429106 47.8415 0.619554 48.1184 0.619554 48.3721C0.587813 48.6028 0.587813 49.1565 0.587813 49.5948C0.556071 50.01 0.714779 50.4944 0.873486 50.6098C1.06393 50.7482 1.22264 51.0712 1.22264 51.348C1.22264 51.6018 1.5718 52.2015 2.04792 52.686C2.77797 53.4703 2.80971 53.5857 2.36533 53.9086C1.66702 54.4161 1.7305 54.6699 2.61926 54.8314C3.19061 54.9236 3.4128 55.1543 3.57151 55.8695C3.66673 56.3539 3.92066 56.7691 4.11111 56.7691C4.30156 56.7691 4.3333 56.9076 4.14285 57.1382C3.98415 57.3689 3.95241 57.8764 4.11111 58.3609C4.30156 58.9607 4.23808 59.2836 3.88892 59.5605C3.63499 59.7681 3.31758 60.3217 3.22235 60.7831C3.06365 61.4982 3.12713 61.6136 3.69847 61.6136C4.42853 61.6136 5.79341 63.4821 6.14256 65.0047C6.33301 65.8121 6.23779 66.0428 5.60296 66.5041C4.65072 67.1731 4.01589 68.0728 4.20634 68.4419C4.30156 68.6034 4.14285 68.8571 3.88892 68.9956C3.63499 69.157 3.44454 69.3877 3.44454 69.5031C3.44454 69.6184 3.12713 70.0106 2.77797 70.3797C2.39707 70.7488 2.1114 71.3255 2.14314 71.6946C2.17489 72.0406 2.20663 72.6404 2.20663 72.9864C2.20663 73.3555 2.39707 73.8861 2.65101 74.1629C3.4128 74.9704 3.57151 76.3314 3.00016 76.9543C2.30185 77.7386 2.36533 77.9462 3.4128 78.4076C4.14285 78.7306 4.26982 78.892 4.04763 79.215C3.82544 79.4688 3.88892 79.8148 4.20634 80.2762C4.46027 80.6222 4.61898 80.9913 4.52375 81.0605C4.42853 81.1297 4.58723 81.568 4.84117 82.0294C5.12684 82.4908 5.2538 82.9752 5.19032 83.0905C5.0951 83.1828 4.93639 84.1748 4.84117 85.259C4.7142 87.1045 4.74594 87.3121 5.57122 88.3733C6.04734 89.0192 6.65043 89.5267 6.87262 89.5267C7.12655 89.5267 7.19003 89.7113 7.06307 90.1034C6.84088 90.7263 7.53919 92.0874 8.04705 92.0181C8.20576 91.9951 8.7771 92.1104 9.31671 92.2719C10.1102 92.5256 10.5864 94.2605 13.1257 93.6146C16.9981 92.6226 19.4422 92.4381 39.2806 91.7922C45.4385 91.6076 47.089 91.6076 47.2795 91.8383C47.4064 91.9998 47.6286 92.0459 47.7556 91.9767C47.8508 91.8844 48.3587 91.9536 48.8665 92.1382C49.4696 92.3689 50.8028 92.4842 53.0247 92.4842C54.8339 92.5073 56.9289 92.6226 57.7224 92.738C58.5159 92.8764 60.1665 93.0609 61.3727 93.1763C62.6106 93.2686 64.1024 93.4531 64.7055 93.5915C65.8165 93.8453 1576.55 92.2258 1584.99 92.0873C1590.55 92.0181 1599.24 92.4334 1600.96 92.8717C1602.13 93.1716 1603.05 93.1946 1607.4 92.964C1611.69 92.7563 1612.96 92.7794 1615.24 93.0562C1620.13 93.6791 1638.95 94.1635 1647.46 93.8867C1650.06 93.7944 1650.32 93.8406 1650.86 94.325C1651.59 94.9479 1653.14 95.2247 1653.62 94.7864C1654.06 94.3942 1654.67 92.5026 1654.67 91.5568C1654.67 91.1415 1654.92 90.4725 1655.24 90.0573C1657.11 87.5659 1657.68 86.9892 1658.66 86.6431C1660 86.1818 1660.35 85.3513 1659.65 84.4516C1659.36 84.1056 1659.2 83.7595 1659.33 83.6673C1659.43 83.5981 1659.27 83.3212 1658.95 83.0675C1658.44 82.6753 1658.38 82.2601 1658.44 80.6222C1658.47 79.538 1658.63 78.4307 1658.76 78.1538C1658.92 77.8539 1658.98 77.3234 1658.92 76.9543C1658.86 76.5621 1658.82 75.7316 1658.86 75.1088C1659.01 71.0256 1658.98 70.7719 1657.65 69.0878C1656.06 67.0347 1655.68 66.3196 1655.65 65.2584C1655.62 64.774 1655.43 64.3126 1655.17 64.2203C1654.67 64.0127 1654.25 60.6908 1654.76 60.6908C1654.95 60.6908 1654.95 60.5755 1654.73 60.3909C1654.41 60.1141 1654.73 57.738 1655.14 57.2305C1655.27 57.0921 1655.43 56.1232 1655.52 55.0851C1655.59 54.047 1655.74 52.4091 1655.84 51.4633C1656.13 48.3952 1656.16 47.311 1655.97 47.311C1655.87 47.311 1655.78 46.7112 1655.74 45.973C1655.71 44.7965 1655.49 43.7353 1655.17 43.0433C1654.82 42.3051 1655.59 39.1908 1656.44 37.9451C1657.17 36.8378 1657.36 36.238 1657.43 34.7385C1657.49 33.7235 1657.71 31.3936 1657.93 29.5481C1658.35 26.157 1658.19 23.7347 1657.49 22.9273C1657.2 22.5813 1657.27 22.3045 1657.78 21.5663C1658.32 20.805 1658.35 20.5051 1658.09 19.5132C1657.93 18.8672 1657.74 17.6215 1657.71 16.7449C1657.65 15.8452 1657.52 12.5417 1657.4 11.5728C1657.2 9.98108 1657.27 9.79653 1657.87 9.38129C1658.25 9.15061 1658.73 8.68923 1658.95 8.36627C1659.49 7.58193 1659.3 5.34427 1658.66 4.99824C1658.38 4.85982 1658.16 4.62914 1658.16 4.49073C1658.16 4.02935 1655.9 3.70639 1650.7 3.42956C1650.19 3.4065 1649.17 3.26808 1648.48 3.12967C1646.67 2.7375 1643.87 2.52988 1640.32 2.52988C1638.06 2.52988 1637.3 2.46068 1637.4 2.25306C1637.56 1.95317 1635.65 1.58407 1631.72 1.1919C1629.27 0.961211 1626.92 1.07655 1626.22 1.46872C1626 1.60713 1625.75 1.561 1625.53 1.39952C1625.3 1.1919 1623.97 1.07655 1621.43 1.03042C1619.37 0.984279 1616.83 2.64993 1615.78 2.51152C1613.72 2.23469 1612.26 2.23469 1609.75 2.46538C1608.48 2.58072 1608.04 2.53458 1607.72 2.23469C1607.47 2.004 1606.77 1.86559 1605.97 1.84252C1605.28 1.81945 1604.32 1.75025 1603.88 1.65797C1603.43 1.5657 1602.45 1.61184 1601.66 1.75025C1600.55 1.95787 1599.97 1.95787 1599.12 1.72718C1597.59 1.33501 1596.26 1.33501 1595.63 1.75025C1595.15 2.05014 1595.02 2.05014 1594.42 1.6349C1593.66 1.12739 1592.9 1.03512 1592.71 1.45035C1592.61 1.6349 1592.36 1.65797 1591.94 1.51956C1591.31 1.31194 1588.8 1.12739 1588.61 1.28887Z" fill="#DDE2C7"/>
</svg>
